# xmcd
#
# Track frame offsets:
#	150
#	19190
#	37693
#	59221
#	80025
#	97538
#	113525
#	130267
#	150138
#	168908
#	188772
#	206094
#	226002
#	244747
#	258701
#	279676
#	298302
#	315003
#
# Disc length: 4433 seconds
#
# Revision: 0
# Processed by: cddbd v1.4PL0 Copyright (c) Steve Scherf et al.
# Submitted via: EasyCDDAExtractor 4.5.0.2
#
DISCID=e8114f12
DTITLE=Gianmarco
DYEAR=1900
DGENRE=
TTITLE0=Canción De Amor
TTITLE1=Dos Historias
TTITLE2=Somos Dos
TTITLE3=Mírame
TTITLE4=Te Extrañaré
TTITLE5=Domitila
TTITLE6=Dame Un Beso
TTITLE7=Me Muero Por Ti
TTITLE8=Mírame (1997)
TTITLE9=La Noche En Mi Sangre
TTITLE10=Quédate
TTITLE11=Corazón De Cartón
TTITLE12=Cúantas Horas Más
TTITLE13=Libres
TTITLE14=Corazón Solitario
TTITLE15=Sólo Pienso En Ti
TTITLE16=No Hieras Mi Corazón
TTITLE17=Secreto
EXTD=
EXTT0=
EXTT1=
EXTT2=
EXTT3=
EXTT4=
EXTT5=
EXTT6=
EXTT7=
EXTT8=
EXTT9=
EXTT10=
EXTT11=
EXTT12=
EXTT13=
EXTT14=
EXTT15=
EXTT16=
EXTT17=
PLAYORDER=
